<svg viewBox="0 0 400 134.6"><path d="m303 0c-4.4 0-8.3 1.5-11.5 4.4-3.2 3-4.7 6.6-4.7 10.9 0 4.3 1.9 8.3 5.6 12.1-15.5 13.9-25.3 24.9-29.5 32.9-2.4 4.5-3.5 9.1-3.5 13.7 0 4 0.9 7.4 2.6 10.6-1.8 1.7-3.4 3.6-5.3 5.1-7.1 5.3-14.5 8-22.2 8-5.2 0-9.6-1.8-13.2-5.4-3.5-3.7-5.2-9.2-5.2-16.6 0-7.5 1.8-13.9 5.4-19.2 3.7-5.4 7.9-8.2 12.7-8.2 2.3 0 4.3 0.6 6.2 2 1.9 1.2 2.9 3.7 2.9 7.3 0 3.5-1.6 7.1-4.7 10.9-3.1 3.8-7.8 6.4-14.2 7.7l2.2 9.1c11-1.9 19.6-5.3 25.8-10.3 6.4-4.9 9.5-11.3 9.5-19.2-0.1-5.8-2.6-10.5-7.5-13.9-4.9-3.5-11.3-5.2-19.2-5.2-11.1 0-20.6 4-28.6 11.9-1.8 1.8-2.6 3.8-4 5.7L179.8 51.5c5.9-23.2 8.9-35.1 9-35.8C189.7 8.3 185.8 4.1 177.2 3.1c-4-0.5-7.1-0.4-9.6 0.2l-11.1 45.4-14.5-1.8c-1.3 2.4-2.1 4.9-2.5 7.4-0.3 2.5-0.5 4.3-0.5 5.4l13.7 1.7 0.7 0.4-7.8 32c-1.2 2.7-2.6 4.9-4.1 6.7-3.1 3.6-6 5.4-8.6 5.4-3 0-4.4-2-4.4-6.1 0-2.2 2.1-19.9 6.3-53.1-1.7-1-4.4-1.5-8-1.5-3.5 0-6.4 0.6-8.8 1.9-2.4 1.1-3.9 2.5-4.6 4.3L108.2 92.2c-0.2 2.5-0.3 4.3-0.3 5.4-3.4 5-7.7 7.5-12.8 7.5-5.5 0-8.3-3-8.3-9.1 0-1 0.1-2.1 0.3-3.4l5-39.2c0-2.5-0.6-4.4-1.8-5.7-1.2-1.3-2.5-2.1-3.8-2.3-1.3-0.2-3.3-0.3-6-0.3-2.7 0-5.6 0.6-8.8 1.7-0.4 3.6-1.2 10.3-1.7 14.7-2.8 3-5.8 5.8-9.1 8.3-7.5 5.5-14.6 8.3-21.4 8.3-5.6 0-10.1-2-13.4-5.9-3.2-4-4.7-9.6-4.7-16.9 0-7.3 1.8-13.7 5.5-19.1 3.5-5 7.4-7.5 11.8-7.5 5.9 0 8.9 3.3 8.9 10 0 2.8-0.8 6.7-2.3 11.8 6.5 0 11.9-2.2 16.5-6.7 2.5-2.6 3.7-5.6 3.7-9.1 0-5.3-2.3-9.6-6.9-12.9C54 18.6 47.7 17 39.8 17c-10.1 0-19.3 3.8-27.5 11.4C4.1 35.9 0 45.8 0 58 0 68.1 3.1 76.2 9.4 82.5c6.4 6.3 14.1 9.4 23.2 9.4 6.8 0 13.5-1.4 20.3-4.3 6-2.6 11-5.7 15.1-9.4-0.6 5.2-0.9 8.3-1.7 14.2-0.5 3.6-0.7 6.1-0.7 7.5 0 5.9 1.9 10.8 5.9 14.5 4 3.7 9.7 5.5 17.1 5.5 8.9 0 16-3.4 21.3-10.3 3.1 6.9 9.1 10.3 18 10.3 4.8 0 9.4-1.8 13.9-5 0.3 3.6 1.1 7.1 3.1 10.2 2.9 4.3 8 6.8 15.4 7.7 7.3 0.9 13.9-0.6 19.6-4.5 5.9-3.9 9.4-10.9 10.7-21.2 1.6-13.1-3.5-26-15.4-38.7l1-4.1 19.5 2.4c-0.8 3.1-1.4 6.2-1.4 9.5 0 10.6 3.2 19.2 9.5 26 5.9 6.3 14.1 9.4 24.3 9.4 6.3 0 12.3-1.1 18.1-3.4 5.9-2.3 11.1-5.2 15.4-8.8 2.7-2.3 4.7-4.6 6.8-7 4.1 2.9 8.2 4.5 12.5 4.5 4.6 0 9-0.7 13.2-2.3 2.3-0.9 3.4-1.7 3.4-2.5 0-0.1-0.7-0.3-2.2-0.6-1.3-0.3-3-0.9-4.9-1.7-1.8-0.7-3.8-1.7-5.7-2.9-1.9-1.2-3.6-3.1-5-5.5-0.6-1.2-0.6-2.2-1-3.4 0.2-0.4 0.6-0.8 0.8-1.3-0.6-1-1.3-1.6-1.9-2.5 0-2.4 0.1-4 0.3-4.8 0.7-4.2 4-9.4 9.7-15.7 2.1-2.3 4.8-5.2 8.3-8.9 3.5-3.8 6.1-6.8 8-8.9 0.4 0.2 0.9 0.5 1.3 0.8 0.2 0.1 1.8 1.1 4.9 3.1 3.1 1.8 6 3.9 8.6 6 4.4 3.7 6.6 7.9 6.6 12.6 0 2.9-1 5.4-2.9 7.7-1.9 2.2-4.4 3.2-7.4 3.2-3 0-5.4-0.9-7.4-2.6-1.9-1.7-2.9-4-2.9-6.7 0-2.9 1.1-5.9 3.2-8.9-4.6 0.6-8.5 2.3-11.5 5.1-3.1 2.7-4.6 6.3-4.6 10.9 0 4.6 2 8.5 6.1 11.7 4.2 3.1 9.4 4.6 15.7 4.6 4.2 0 8-0.7 11.5-1.6 0.8 2.6 2 4.9 3.8 6.6 3.3 3.1 7.6 4.8 13 5.3-7.6 7.2-11.4 14.5-11.4 22 0 6.1 1.9 10.8 5.7 13.9 3.8 3.3 8.4 4.9 13.7 4.9 8.3 0 14.5-2.7 18.8-8.2 4.3-5.4 6.9-12.3 7.9-20.7l2.2-17.4c8.4 2.5 13.5 9.6 15.4 21.2 3.2-3.8 4.9-6.6 5.3-8.3-2.1-13-8.6-20.5-19.5-22.5l6.5-51.4c-2.4-0.7-5.1-1.1-8.1-1.1-1.7 0-3.9 0.5-6.5 1.6-2.6 1-4.3 2.4-5.2 4.1-0.7 5.7-1.6 13.6-2.8 23.8-1.1 10.1-1.8 16.3-2.1 18.4-2.9 4.3-6.6 6.4-11.1 6.4-5 0-7.6-2.7-7.6-8.2 0-0.6 0.1-1.6 0.3-3.1l0-0.2c2.2-3.7 3.6-7.7 3.6-12.4 0-2.4-0.4-4.6-1.1-6.8l2-16.1c0-2.2-0.5-4-1.6-5.2-1.1-1.2-2.3-1.9-3.5-2.1-1.2-0.2-3-0.3-5.5-0.3-2.4 0-5 0.5-7.9 1.6-0.2 1.7-0.4 3.1-0.6 4.7-4.2-2.4-8.3-4.8-16.3-8.4 2.2-4.1 3.2-7.8 3.2-11.1 0-3.3-1-6-2.9-8.2-3-3.2-6.5-4.7-10.5-4.7zm-0.6 8.5c2.3 0.2 3.4 1.6 3.4 4.1 0 1.1-1.2 3-3.7 5.5-2.4-1.8-3.5-3.7-3.5-5.4 0-2.9 1.3-4.3 3.8-4.3zM172.1 81.3c5.8 8.4 8.3 16.5 7.3 24.3-0.6 4.7-1.8 8.1-3.7 10.2-1.8 2-3.9 2.8-6.3 2.5-3.3-0.4-4.6-3.1-4-8.2 0.3-2.6 2.5-12.2 6.6-28.8zm188.4 10.2-1.8 15.3c-0.7 6.1-1.8 10.2-3.1 12.3-1.3 2-3.2 3.1-5.7 3.1-2.4 0-4.4-0.7-5.9-2.2-1.5-1.5-2.2-3.7-2.2-6.8 0.3-8.1 6.5-15.3 18.7-21.6z" style="fill:#FFF;stroke-width:1px"/></svg>