<svg
   xmlns:dc="http://purl.org/dc/elements/1.1/"
   xmlns:cc="http://creativecommons.org/ns#"
   xmlns:rdf="http://www.w3.org/1999/02/22-rdf-syntax-ns#"
   xmlns:svg="http://www.w3.org/2000/svg"
   xmlns="http://www.w3.org/2000/svg"
   xmlns:sodipodi="http://sodipodi.sourceforge.net/DTD/sodipodi-0.dtd"
   xmlns:inkscape="http://www.inkscape.org/namespaces/inkscape"
   width="210mm"
   height="297mm"
   viewBox="0 0 744.09448819 1052.3622047"
   id="svg4136"
   version="1.1"
   inkscape:version="0.91 r13725"
   sodipodi:docname="logo.svg">
  <defs
     id="defs4138" />
  <sodipodi:namedview
     id="base"
     pagecolor="#ffffff"
     bordercolor="#666666"
     borderopacity="1.0"
     inkscape:pageopacity="0.0"
     inkscape:pageshadow="2"
     inkscape:zoom="1.5830516"
     inkscape:cx="361.27617"
     inkscape:cy="666.29693"
     inkscape:document-units="px"
     inkscape:current-layer="g4828"
     showgrid="false"
     inkscape:window-width="1440"
     inkscape:window-height="791"
     inkscape:window-x="0"
     inkscape:window-y="1"
     inkscape:window-maximized="1"
     inkscape:snap-bbox="false"
     inkscape:snap-global="true"
     inkscape:snap-midpoints="true"
     inkscape:snap-smooth-nodes="false"
     inkscape:object-nodes="false"
     inkscape:snap-intersection-paths="false"
     inkscape:object-paths="false"
     inkscape:snap-nodes="true" />
  <metadata
     id="metadata4141">
    <rdf:RDF>
      <cc:Work
         rdf:about="">
        <dc:format>image/svg+xml</dc:format>
        <dc:type
           rdf:resource="http://purl.org/dc/dcmitype/StillImage" />
        <dc:title></dc:title>
      </cc:Work>
    </rdf:RDF>
  </metadata>
  <g
     inkscape:label="Layer 1"
     inkscape:groupmode="layer"
     id="layer1">
    <g
       id="g4828"
       transform="translate(0,-146)"
       style="fill:#000000;fill-opacity:0;stroke:#000000;stroke-opacity:1;stroke-linejoin:miter;stroke-width:2;stroke-miterlimit:4;stroke-dasharray:none">
      <path
         style="font-style:normal;font-variant:normal;font-weight:normal;font-stretch:normal;font-size:202.5px;line-height:125%;font-family:'Lily Script One';-inkscape-font-specification:'Lily Script One, Normal';text-align:center;letter-spacing:0px;word-spacing:0px;writing-mode:lr-tb;text-anchor:middle;fill:#000000;fill-opacity:0;stroke:#000000;stroke-width:2;stroke-linecap:butt;stroke-linejoin:miter;stroke-opacity:1;stroke-miterlimit:4;stroke-dasharray:none"
         d="M 336.43555 296.95312 C 334.37352 296.99232 332.54824 297.20643 330.95703 297.59766 L 316.71484 355.79102 L 298.04492 353.48633 C 296.34903 356.50957 295.29593 359.6848 294.88477 363.01367 C 294.49148 366.19781 294.27817 368.52307 294.24414 369.98828 L 311.82812 372.16016 L 312.64258 372.70117 L 301.73438 417.48438 C 300.72617 419.15496 299.65926 420.66699 298.52148 421.98828 C 294.47148 426.71328 290.69164 429.07617 287.18164 429.07617 C 283.26664 429.07617 281.31055 426.37656 281.31055 420.97656 C 281.31055 418.14156 284.07633 394.85328 289.61133 351.11328 C 287.31633 349.76328 283.80703 349.08789 279.08203 349.08789 C 274.49203 349.08789 270.64406 349.89758 267.53906 351.51758 C 264.43406 353.00258 262.40984 354.8925 261.46484 357.1875 L 254.78125 411.05273 C 254.51125 414.29273 254.37695 416.65563 254.37695 418.14062 C 249.92195 424.75563 244.32031 428.0625 237.57031 428.0625 C 230.28031 428.0625 226.63477 424.08023 226.63477 416.11523 C 226.63477 414.76523 226.76906 413.28016 227.03906 411.66016 L 233.72266 360.02344 C 233.72266 356.78344 232.91297 354.28625 231.29297 352.53125 C 229.67297 350.77625 227.98547 349.76414 226.23047 349.49414 C 224.47547 349.22414 221.84203 349.08789 218.33203 349.08789 C 214.82203 349.08789 210.97406 349.83141 206.78906 351.31641 C 205.97073 358.81776 204.95702 367.66578 203.75977 377.78516 C 201.08116 380.32998 198.22509 382.71412 195.18359 384.93359 C 185.32859 392.22359 175.94516 395.86914 167.03516 395.86914 C 159.61016 395.86914 153.73797 393.30383 149.41797 388.17383 C 145.23297 382.90883 143.14063 375.48344 143.14062 365.89844 C 143.14063 356.31344 145.57164 347.94406 150.43164 340.78906 C 155.02164 334.17406 160.21844 330.86523 166.02344 330.86523 C 173.85344 330.86523 177.76758 335.2543 177.76758 344.0293 C 177.76758 347.6743 176.75547 352.87109 174.73047 359.62109 C 183.23547 359.62109 190.45844 356.65094 196.39844 350.71094 C 199.63844 347.33594 201.25781 343.35367 201.25781 338.76367 C 201.25781 331.74367 198.22148 326.07391 192.14648 321.75391 C 186.07148 317.43391 177.83641 315.27344 167.44141 315.27344 C 154.07641 315.27344 141.99336 320.26781 131.19336 330.25781 C 120.39336 340.24781 114.99414 353.2768 114.99414 369.3418 C 114.99414 382.5718 119.1107 393.30406 127.3457 401.53906 C 135.7157 409.77406 145.90883 413.89063 157.92383 413.89062 C 166.83383 413.89063 175.7443 412.0007 184.6543 408.2207 C 190.97605 405.52618 196.49401 402.35038 201.22461 398.70117 C 200.69942 403.0086 200.27752 406.59492 199.70117 411.25586 C 199.02617 415.98086 198.68945 419.28773 198.68945 421.17773 C 198.68945 429.00773 201.32289 435.35289 206.58789 440.21289 C 211.85289 445.07289 219.34445 447.50391 229.06445 447.50391 C 240.80945 447.50391 250.19289 442.98055 257.21289 433.93555 C 261.26289 442.98055 269.1593 447.50391 280.9043 447.50391 C 286.62372 447.50391 292.21321 445.77264 297.67383 442.32227 C 298.1905 446.44983 299.61815 450.28195 301.96289 453.81641 C 305.69709 459.27365 312.2681 462.58215 321.67578 463.74414 C 331.08346 464.90613 339.47289 463.00412 346.8457 458.03711 C 354.36325 453.08798 358.93572 444.02817 360.5625 430.85742 C 362.6362 414.06834 356.08229 397.53718 340.90039 381.26172 L 342.22266 375.91406 L 367.53906 379.04102 C 366.41977 383.22586 365.84766 387.59541 365.84766 392.1582 C 365.84766 406.0632 370.03234 417.47086 378.40234 426.38086 C 386.23234 434.61586 396.89844 438.73438 410.39844 438.73438 C 418.63344 438.73438 426.59797 437.2493 434.29297 434.2793 C 442.12297 431.3093 448.87297 427.46133 454.54297 422.73633 C 458.87836 419.02028 462.70608 415.27524 466.03516 411.5 C 471.00788 415.20493 476.0965 417.07031 481.30078 417.07031 C 486.73828 417.07031 491.93451 416.16406 496.88867 414.35156 C 499.54701 413.26406 500.875 412.29701 500.875 411.45117 C 500.875 411.33034 500.02956 411.08906 498.33789 410.72656 C 496.76706 410.36406 494.8349 409.69909 492.53906 408.73242 C 490.36406 407.88659 488.12786 406.73906 485.83203 405.28906 C 483.5362 403.83906 481.54323 401.66367 479.85156 398.76367 C 478.91757 397.03938 478.26733 395.35956 477.88867 393.7207 C 478.0033 393.47005 478.12593 393.21965 478.23633 392.96875 C 478.02057 392.59717 477.80009 392.23789 477.58008 391.87695 C 477.5291 391.39021 477.49414 390.90468 477.49414 390.42578 C 477.49414 387.64661 477.61576 385.77526 477.85742 384.80859 C 478.70326 379.85443 482.50872 373.69115 489.27539 366.32031 C 491.69206 363.66198 494.95417 360.15859 499.0625 355.80859 C 503.17083 351.33776 506.31328 347.83242 508.48828 345.29492 C 508.97161 345.53659 509.45417 345.83867 509.9375 346.20117 C 510.17917 346.32201 512.11328 347.53034 515.73828 349.82617 C 519.36328 352.00117 522.74701 354.35703 525.88867 356.89453 C 531.08451 361.24453 533.68164 366.19948 533.68164 371.75781 C 533.68164 375.14115 532.53411 378.16198 530.23828 380.82031 C 527.94245 383.35781 525.04323 384.62695 521.53906 384.62695 C 518.0349 384.62695 515.13372 383.59909 512.83789 381.54492 C 510.54206 379.49076 509.39453 376.83281 509.39453 373.57031 C 509.39453 370.18698 510.66367 366.68359 513.20117 363.05859 C 507.76367 363.78359 503.23242 365.77656 499.60742 369.03906 C 495.98242 372.18073 494.16992 376.4707 494.16992 381.9082 C 494.16992 387.3457 496.58659 391.93776 501.41992 395.68359 C 506.37409 399.30859 512.53542 401.12109 519.90625 401.12109 C 525.21194 401.12109 530.09075 400.47845 534.55273 399.21289 C 535.5588 402.35775 537.203 405.00948 539.49023 407.16602 C 543.57357 411.01602 548.99896 413.23307 555.76562 413.81641 C 546.19896 422.79974 541.41602 432.0168 541.41602 441.4668 C 541.41602 449.1668 543.80651 455.00013 548.58984 458.9668 C 553.37318 463.05013 559.09023 465.0918 565.74023 465.0918 C 576.12357 465.0918 583.99857 461.64896 589.36523 454.76562 C 594.7319 447.99896 598.05651 439.36523 599.33984 428.86523 L 602.14062 406.99023 C 612.64062 410.14023 619.05729 419.00846 621.39062 433.5918 C 625.35729 428.80846 627.57435 425.30846 628.04102 423.0918 C 625.35768 406.75846 617.19102 397.36602 603.54102 394.91602 L 611.76562 330.3418 C 608.73229 329.40846 605.34857 328.94141 601.61523 328.94141 C 599.51523 328.94141 596.77396 329.5819 593.39062 330.86523 C 590.12396 332.14857 587.96602 333.89857 586.91602 336.11523 C 585.98268 343.2319 584.81602 353.20768 583.41602 366.04102 C 582.01602 378.75768 581.14102 386.45729 580.79102 389.14062 C 577.17435 394.50729 572.50768 397.19141 566.79102 397.19141 C 560.49102 397.19141 557.33984 393.74857 557.33984 386.86523 C 557.33984 386.16523 557.45807 384.88229 557.69141 383.01562 L 558.41406 377.43359 C 559.05462 375.01516 559.38821 372.44356 559.41211 369.7168 L 563.46484 338.39062 C 563.46484 335.59062 562.76523 333.43268 561.36523 331.91602 C 559.96523 330.39935 558.5069 329.52435 556.99023 329.29102 C 555.47357 329.05768 553.19935 328.94141 550.16602 328.94141 C 547.13268 328.94141 543.80807 329.5819 540.19141 330.86523 C 539.759 334.3725 539.37746 337.46157 538.96484 340.81055 C 534.06042 338.08406 527.37377 334.81363 518.82031 330.97656 C 521.35781 326.14323 522.625 321.79245 522.625 317.92578 C 522.625 314.05911 521.47747 310.85781 519.18164 308.32031 C 515.67747 304.57448 511.56992 302.70117 506.85742 302.70117 C 501.66159 302.70117 497.13034 304.45286 493.26367 307.95703 C 489.51784 311.4612 487.64453 315.75117 487.64453 320.82617 C 487.64453 325.90117 489.88073 330.6737 494.35156 335.14453 C 476.10573 351.57786 464.50495 364.50859 459.55078 373.93359 C 456.77161 379.25026 455.38281 384.62695 455.38281 390.06445 C 455.38281 394.01959 456.08011 397.61852 457.46484 400.86914 C 454.38949 404.22681 451.05453 407.26589 447.45508 409.97852 C 438.14008 416.99852 428.41992 420.50977 418.29492 420.50977 C 411.40992 420.50977 405.60586 418.14687 400.88086 413.42188 C 396.29086 408.56187 393.99609 401.27078 393.99609 391.55078 C 393.99609 381.69578 396.35898 373.25828 401.08398 366.23828 C 405.94398 359.08328 411.54562 355.50586 417.89062 355.50586 C 420.86062 355.50586 423.56023 356.38367 425.99023 358.13867 C 428.55523 359.75867 429.83789 362.93125 429.83789 367.65625 C 429.83789 372.24625 427.74555 377.0382 423.56055 382.0332 C 419.51055 387.0282 413.30164 390.4032 404.93164 392.1582 L 407.76562 404.10547 C 422.21063 401.54047 433.55016 397.01906 441.78516 390.53906 C 450.15516 384.05906 454.33984 375.62156 454.33984 365.22656 C 454.20484 357.53156 450.89797 351.45695 444.41797 347.00195 C 437.93797 342.41195 429.50047 340.11719 419.10547 340.11719 C 404.52547 340.11719 391.97141 345.31398 381.44141 355.70898 C 379.09663 358.05376 377.03071 360.49226 375.21484 363.01562 L 346.45898 359.46484 C 354.10303 329.69822 357.97868 314.38012 358.08594 313.51172 C 359.24793 304.10404 354.32787 298.72191 343.32812 297.36328 C 340.79529 297.05044 338.49757 296.91393 336.43555 296.95312 z M 506.13281 312.66992 C 508.79115 312.91159 510.11914 314.54362 510.11914 317.56445 C 510.11914 318.89362 508.66953 321.06901 505.76953 324.08984 C 502.99036 321.91484 501.60156 319.80026 501.60156 317.74609 C 501.60156 314.36276 503.11198 312.66992 506.13281 312.66992 z M 336.66406 397.70898 C 344.15033 408.47873 347.27842 418.85714 346.04492 428.84375 C 345.2941 434.92256 343.7256 439.28334 341.3418 441.92773 C 338.97587 444.4274 336.27378 445.49065 333.23438 445.11523 C 329.0371 444.59681 327.34008 441.08137 328.14453 434.56836 C 328.5557 431.23949 331.39523 418.95249 336.66406 397.70898 z M 578.51562 411.01562 L 576.24023 430.26562 C 575.3069 437.96563 574.02396 443.09935 572.39062 445.66602 C 570.75729 448.23268 568.36484 449.51562 565.21484 449.51562 C 562.18151 449.51563 559.7319 448.58346 557.86523 446.7168 C 555.99857 444.85013 555.06641 441.99062 555.06641 438.14062 C 555.41641 427.99063 563.23229 418.94896 578.51562 411.01562 z "
         transform="translate(0,146)"
         id="text4804" />
    </g>
  </g>
</svg>
