<?xml version="1.0" encoding="UTF-8" standalone="no"?>
<svg
   xmlns:dc="http://purl.org/dc/elements/1.1/"
   xmlns:cc="http://creativecommons.org/ns#"
   xmlns:rdf="http://www.w3.org/1999/02/22-rdf-syntax-ns#"
   xmlns:svg="http://www.w3.org/2000/svg"
   xmlns="http://www.w3.org/2000/svg"
   xmlns:sodipodi="http://sodipodi.sourceforge.net/DTD/sodipodi-0.dtd"
   xmlns:inkscape="http://www.inkscape.org/namespaces/inkscape"
   width="111"
   height="111"
   id="svg3962"
   version="1.1"
   inkscape:version="0.91 r13725"
   sodipodi:docname="icon_mkr_coffee.svg">
  <circle
     style="fill:#ffffff;stroke:#acadad;stroke-width:0.27190241;stroke-miterlimit:4;stroke-dasharray:none;stroke-opacity:1"
     id="path4012"
     cx="53.549606"
     cy="52.013504"
     r="20.659727" />
  <metadata
     id="metadata3982">
    <rdf:RDF>
      <cc:Work
         rdf:about="">
        <dc:format>image/svg+xml</dc:format>
        <dc:type
           rdf:resource="http://purl.org/dc/dcmitype/StillImage" />
      </cc:Work>
    </rdf:RDF>
  </metadata>
  <defs
     id="defs3980" />
  <sodipodi:namedview
     pagecolor="#ffffff"
     bordercolor="#666666"
     borderopacity="1"
     objecttolerance="10"
     gridtolerance="10"
     guidetolerance="10"
     inkscape:pageopacity="0"
     inkscape:pageshadow="2"
     inkscape:window-width="1440"
     inkscape:window-height="790"
     id="namedview3978"
     showgrid="false"
     inkscape:zoom="5.2972973"
     inkscape:cx="55.5"
     inkscape:cy="55.5"
     inkscape:window-x="0"
     inkscape:window-y="1"
     inkscape:window-maximized="1"
     inkscape:current-layer="svg3962" />
  <!-- <ellipse stroke="#000" ry="54" rx="54" id="svg_13" cy="54.5" cx="54.5" fill-opacity="null" stroke-opacity="null" stroke-width="0.2" fill="#fff"/> -->
  <path
     style="fill:#54c4d3"
     inkscape:connector-curvature="0"
     id="svg_1"
     d="m 41.531039,39.826114 c 3.459625,-3.518329 8.547309,-5.3225 13.454967,-4.84504 4.058406,0.39136 8.011145,2.258149 10.7311,5.326413 -1.948975,2.160309 -4.109284,4.117111 -6.085653,6.250024 -2.567324,-1.444119 -5.588625,-1.725899 -8.476864,-1.5537 -2.26989,0.04696 -4.755028,0.637917 -6.257851,2.46557 -0.727931,1.189735 -0.328743,2.649509 -0.06653,3.92143 0.04696,0.203507 0.144804,0.614436 0.19568,0.821857 0.332657,1.874615 0.997969,3.721836 2.395125,5.072029 0.160458,0.164371 0.481374,0.4892 0.637918,0.653572 -1.929406,2.105518 -3.940998,4.140592 -6.046517,6.073912 -3.154364,-2.80214 -5.044634,-6.903596 -5.357722,-11.091151 -0.356138,-4.79025 1.444119,-9.717477 4.876349,-13.094916 z" />
  <path
     style="fill:#2ab7ca"
     inkscape:connector-curvature="0"
     id="svg_2"
     d="m 65.717106,40.307487 c 5.118992,5.259883 5.936935,14.030267 1.98811,20.198105 -2.751263,4.543693 -7.780243,7.611958 -13.083175,7.948528 -4.571088,0.33657 -9.298721,-1.252353 -12.609629,-4.441939 2.105519,-1.93332 4.117111,-3.968394 6.046517,-6.073912 2.168136,1.5537 5.048548,1.937233 7.568908,1.099722 1.710244,-0.637917 2.95477,-2.074209 4.633706,-2.770831 1.408897,-0.626176 3.076092,-0.96666 4.046665,-2.277717 1.373675,-1.577182 1.83548,-4.218864 0.28178,-5.835182 -1.037105,-0.622263 -2.238581,-0.371792 -3.346131,-0.140889 -0.516595,-0.512682 -1.0645,-0.986228 -1.612404,-1.455861 1.976369,-2.132913 4.136678,-4.089715 6.085653,-6.250024 z" />
  <path
     style="fill:#acadad"
     inkscape:connector-curvature="0"
     id="svg_3"
     d="m 44.896738,47.469381 c 1.502823,-1.827653 3.987961,-2.418607 6.257851,-2.46557 -0.810116,0.356138 -1.624145,0.739671 -2.285544,1.338452 -0.0039,0.422669 0.203507,0.704449 0.63009,0.837511 -1.510651,0.356138 -2.903894,1.099723 -4.023184,2.175963 -0.19568,-0.254384 -0.399188,-0.500941 -0.610522,-0.743584 -0.01566,0.927524 -0.05479,1.851134 -0.03522,2.778658 -0.262211,-1.271921 -0.661399,-2.731695 0.06653,-3.92143 z" />
  <path
     style="fill:#c6c6c6"
     inkscape:connector-curvature="0"
     id="svg_4"
     d="m 51.154589,45.003811 c 2.888239,-0.172199 5.90954,0.109581 8.476864,1.5537 0.547904,0.469633 1.095809,0.943179 1.612404,1.455861 1.10755,-0.230903 2.309026,-0.481374 3.346131,0.140889 -0.82577,0.258298 -1.651541,0.528337 -2.46557,0.82577 -0.136976,0.05871 -0.407015,0.176113 -0.540077,0.230903 -1.037105,0.77098 -2.391212,1.49891 -2.555583,2.923462 -0.29352,1.765034 -0.935351,3.63965 -2.582978,4.582829 -2.727781,1.710244 -6.05043,1.150599 -9.024769,0.567472 -1.397156,-1.350193 -2.062468,-3.197414 -2.395125,-5.072029 1.330625,1.698503 2.763004,3.561378 4.942881,4.1719 2.160309,0.782721 4.598484,0.01565 6.269592,-1.459774 1.076241,-0.982314 1.295403,-2.508619 1.522392,-3.874467 0.692707,-0.301347 1.361933,-0.661398 1.999851,-1.072327 0.105667,-0.144803 0.313088,-0.438323 0.418755,-0.583127 -2.657336,-2.91172 -7.103189,-2.684731 -10.680222,-2.215099 -0.426583,-0.133062 -0.634004,-0.414842 -0.63009,-0.837511 0.661399,-0.598781 1.475428,-0.982314 2.285544,-1.338452 z" />
  <path
     style="fill:#5f4105"
     inkscape:connector-curvature="0"
     id="svg_5"
     d="m 49.499135,47.179774 c 3.577033,-0.469632 8.022886,-0.696621 10.680222,2.215099 -0.105667,0.144804 -0.313088,0.438324 -0.418755,0.583127 -2.035074,-0.896215 -4.038839,-2.156395 -6.340037,-2.129 -2.629941,-0.117408 -5.16987,0.849252 -7.322351,2.305112 -0.211335,-0.262211 -0.422669,-0.528336 -0.622263,-0.798375 1.11929,-1.07624 2.512533,-1.819825 4.023184,-2.175963 z" />
  <path
     style="fill:#301b01"
     inkscape:connector-curvature="0"
     id="svg_6"
     d="m 46.098214,50.154112 c 2.152481,-1.45586 4.69241,-2.42252 7.322351,-2.305112 2.301198,-0.02739 4.304963,1.232785 6.340037,2.129 -0.637918,0.410929 -1.307144,0.77098 -1.999851,1.072327 -0.504855,0.144804 -1.013624,0.28178 -1.522392,0.410929 -3.33439,0.626176 -6.903596,0.383533 -9.979688,-1.123204 l -0.160457,-0.18394 z" />
  <path
     style="fill:#acadad"
     inkscape:connector-curvature="0"
     id="svg_7"
     d="m 64.589988,48.154261 c 1.5537,1.616318 1.091895,4.258 -0.28178,5.835182 -0.970573,1.311057 -2.637768,1.651541 -4.046665,2.277717 -1.678936,0.696622 -2.923462,2.132914 -4.633706,2.770831 -2.52036,0.837511 -5.400772,0.453978 -7.568908,-1.099722 -0.156544,-0.164372 -0.47746,-0.489201 -0.637918,-0.653572 2.974339,0.583127 6.296988,1.142772 9.024769,-0.567472 1.647627,-0.943179 2.289458,-2.817795 2.582978,-4.582829 0.164371,-1.424552 1.518478,-2.152482 2.555583,-2.923462 -0.01566,1.980283 -0.86882,3.784454 -1.424552,5.647329 2.46557,-0.191766 4.841127,-2.348162 4.481076,-4.950708 -0.101754,-1.275834 -1.628059,-1.060586 -2.516447,-0.927524 0.814029,-0.297433 1.6398,-0.567472 2.46557,-0.82577 z" />
  <path
     style="fill:#e0e0e0"
     inkscape:connector-curvature="0"
     id="svg_8"
     d="m 44.865429,48.612153 c 0.211334,0.242643 0.414842,0.4892 0.610522,0.743584 0.199594,0.270039 0.410928,0.536164 0.622263,0.798375 l 0.160457,0.18394 c 0.724017,2.207272 2.344249,4.602397 4.87635,4.782423 2.312939,0.297433 4.637619,-1.377589 5.103338,-3.659219 0.508768,-0.129149 1.017537,-0.266125 1.522392,-0.410929 -0.226989,1.365848 -0.446151,2.892153 -1.522392,3.874467 -1.671108,1.475429 -4.109283,2.242495 -6.269592,1.459774 -2.179877,-0.610522 -3.612256,-2.473397 -4.942881,-4.1719 -0.05088,-0.207421 -0.148716,-0.61835 -0.19568,-0.821857 -0.01957,-0.927524 0.01957,-1.851134 0.03522,-2.778658 z" />
  <path
     style="fill:#2ab7ca"
     inkscape:connector-curvature="0"
     id="svg_9"
     d="m 62.124418,48.980031 c 0.888388,-0.133062 2.414693,-0.34831 2.516447,0.927524 0.360051,2.602546 -2.015506,4.758942 -4.481076,4.950708 0.555732,-1.862875 1.408897,-3.667046 1.424552,-5.647329 0.133062,-0.05479 0.403101,-0.172198 0.540077,-0.230903 z" />
  <path
     style="fill:#acadad"
     inkscape:connector-curvature="0"
     id="svg_10"
     d="M 34.416109,60.664842 C 32.84284,57.15434 32.490616,53.193774 32.925026,49.413234 c -0.01957,3.213068 0.379619,6.477013 1.663281,9.447437 0.590954,1.487169 1.573269,2.782572 2.136827,4.285396 0.634004,1.976369 2.293372,3.34613 3.7688,4.70415 3.561379,3.126969 8.285098,4.618052 12.961853,4.856782 5.244228,-0.14089 10.554988,-2.011592 14.300306,-5.776478 1.134945,-1.084068 2.285544,-2.246409 2.75909,-3.784454 0.563559,-1.502824 1.545873,-2.798227 2.132913,-4.289309 1.287576,-2.966511 1.686763,-6.230456 1.667195,-9.439611 0.356138,1.553701 0.04696,3.162191 0.09001,4.739373 -0.410928,7.455414 -5.506439,14.249429 -12.230009,17.298126 -3.737491,1.772862 -7.975923,2.0429 -12.034329,1.5537 C 43.260849,71.889056 37.19085,67.032274 34.416106,60.664842 Z" />
  <path
     style="fill:#ffffff"
     inkscape:connector-curvature="0"
     id="svg_11"
     d="m 51.135021,55.120475 c -2.532101,-0.180026 -4.152333,-2.575151 -4.87635,-4.782423 3.076092,1.506737 6.645298,1.74938 9.979688,1.123204 -0.465719,2.28163 -2.790399,3.956652 -5.103338,3.659219 z" />
</svg>
