<?xml version="1.0" encoding="UTF-8" standalone="no"?>
<svg
   xmlns:dc="http://purl.org/dc/elements/1.1/"
   xmlns:cc="http://creativecommons.org/ns#"
   xmlns:rdf="http://www.w3.org/1999/02/22-rdf-syntax-ns#"
   xmlns:svg="http://www.w3.org/2000/svg"
   xmlns="http://www.w3.org/2000/svg"
   xmlns:sodipodi="http://sodipodi.sourceforge.net/DTD/sodipodi-0.dtd"
   xmlns:inkscape="http://www.inkscape.org/namespaces/inkscape"
   width="111"
   height="111"
   id="svg3962"
   version="1.1"
   inkscape:version="0.91 r13725"
   sodipodi:docname="icom_mkr_park.svg">
  <circle
     style="fill:#ffffff;stroke:#acadad;stroke-width:0.27190241;stroke-miterlimit:4;stroke-dasharray:none;stroke-opacity:1"
     id="path4012"
     cx="53.549606"
     cy="52.013504"
     r="20.659727" />
  <g
     id="g6295"
     transform="matrix(1.0028213,0,0,1.0028213,-44.306668,-2.5595197)">
    <path
       id="path5171"
       d="m 84.822291,43.082762 c 3.296062,-3.798653 8.368725,-5.960964 13.390739,-5.672656 4.39475,0.171427 8.59859,2.236336 11.58297,5.442788 -2.1701,1.901275 -4.12203,4.032417 -6.17525,6.050573 -0.13246,-0.132466 -0.40129,-0.401294 -0.53376,-0.537656 -0.41298,0.432462 -0.83375,0.857132 -1.25842,1.27401 0.33896,-0.483111 0.6857,-0.958429 1.04414,-1.425956 -0.074,-0.14805 -0.22597,-0.448046 -0.29999,-0.596096 -0.21429,-0.272724 -0.44026,-0.537656 -0.67792,-0.790899 -0.24935,-0.08182 -0.74414,-0.245451 -0.99349,-0.327269 -0.21039,0.10909 -0.63506,0.327269 -0.84934,0.432462 -0.222077,-0.01948 -0.666227,-0.06234 -0.888302,-0.08182 0.451942,-0.303892 0.903882,-0.603888 1.359722,-0.90778 -0.22987,-0.420774 -0.45973,-0.845444 -0.681809,-1.270114 -1.811665,-0.5922 -3.716836,-0.55324 -5.57915,-0.272724 -0.557136,0.580512 -1.106479,1.176608 -1.714264,1.710368 -0.268827,0.159738 -0.802587,0.471423 -1.071415,0.627265 -0.225971,0.467526 -0.44415,0.938949 -0.635057,1.42206 -0.198698,0.525967 -0.374021,1.059726 -0.57272,1.585694 -0.03506,0.07402 -0.109089,0.225971 -0.14805,0.299996 -0.171426,0.190907 -0.522071,0.564928 -0.693497,0.751938 -0.245452,1.593487 -0.985702,3.1597 -0.487007,4.788251 -0.144154,0.487007 -0.370125,0.974014 -0.362333,1.492189 0.299996,0.483111 0.728562,0.86882 1.110375,1.281802 0.02727,0.264932 0.08571,0.794795 0.116882,1.059727 0.861028,0.319476 1.753224,0.57272 2.676589,0.615576 -2.135037,2.138934 -4.316828,4.238908 -6.350568,6.475243 -2.898665,-2.71555 -4.893445,-6.412906 -5.337595,-10.379089 -0.5922,-4.659681 0.907781,-9.533645 4.02852,-13.047886 z"
       inkscape:connector-curvature="0"
       style="fill:#97db4d" />
    <path
       id="path5173"
       d="m 103.62075,48.903467 c 2.05322,-2.018156 4.00515,-4.149298 6.17525,-6.050573 3.18697,3.568786 4.81552,8.493399 4.19605,13.26217 -0.63116,5.762264 -4.5389,10.998561 -9.85312,13.301129 -5.898627,2.680486 -13.231002,1.449333 -18.007564,-2.906456 2.03374,-2.236335 4.215531,-4.336309 6.350568,-6.475243 0.214283,-0.03506 0.638953,-0.112985 0.853236,-0.14805 0.724666,0.112986 1.449333,0.225971 2.185687,0.245452 l 0.537655,0.03117 c 0.01948,1.044143 -0.07013,2.131142 0.323373,3.12074 0.237659,0.05065 0.712978,0.155842 0.950637,0.206491 0.432462,-0.0078 0.86882,-0.03507 1.301282,-0.05844 0.01169,-1.14544 0.23766,-2.275296 0.331165,-3.41684 0.61168,0.233763 1.227261,0.459734 1.842831,0.689602 1.23505,-0.432462 2.46621,-0.923365 3.52204,-1.710368 0.31168,-0.222075 0.61947,-0.44415 0.92726,-0.666225 0.30389,-1.359723 0.51038,-2.742823 0.93115,-4.075273 -0.29999,-0.311685 -0.59999,-0.627265 -0.90388,-0.938949 0.0117,-0.27662 0.0351,-0.833756 0.0468,-1.110376 -0.26493,-0.366229 -0.52986,-0.736354 -0.79869,-1.102583 0.0662,-0.358437 0.13247,-0.712978 0.1987,-1.071415 -0.37013,-0.374022 -0.74025,-0.751939 -1.11038,-1.12596 z"
       inkscape:connector-curvature="0"
       style="fill:#7ed321" />
    <path
       id="path5175"
       d="m 94.262431,44.399628 c 1.862314,-0.280516 3.767485,-0.319476 5.57915,0.272724 -0.253243,0.97791 -0.677913,1.909067 -1.835041,1.971403 0.475318,-0.576616 0.954533,-1.149336 1.429851,-1.725952 -0.455838,0.01948 -0.911676,0.03896 -1.367515,0.05844 -0.46363,-0.214283 -0.90778,-0.596096 -1.445436,-0.541551 -0.03896,0.245451 -0.112985,0.74025 -0.151946,0.989597 0.03506,0.631161 0.05454,1.262322 0.07013,1.893483 -0.674017,0.264931 -1.332451,0.576616 -1.99478,0.86882 0.416878,0.155842 0.833756,0.307788 1.25453,0.459734 0.755834,-0.311684 1.511669,-0.623368 2.271399,-0.931157 -0.04286,-0.179218 -0.136361,-0.533759 -0.179218,-0.712978 1.340243,0.292204 2.762305,0.631161 4.001245,-0.175322 0.23766,0.253243 0.46363,0.518175 0.67792,0.790899 -0.67402,0.303892 -1.35583,0.5922 -2.01816,0.927261 -0.829859,0.261036 -0.0195,1.086999 0.4948,1.122064 l 0.29999,0.210387 c -0.46752,0.331164 -0.93894,0.658433 -1.418159,0.977909 -0.03506,-0.374021 -0.109089,-1.118167 -0.144154,-1.492189 -0.580512,-0.03896 -1.161024,-0.05844 -1.741536,-0.06623 0.354541,0.57272 0.72077,1.133752 1.090895,1.69868 -0.607784,-0.206491 -1.211673,-0.416878 -1.823353,-0.603888 0.299996,-0.677914 0.596096,-1.351931 0.884404,-2.037637 -0.798691,0.362333 -1.585694,0.740251 -2.364905,1.137648 -0.744146,-0.140258 -1.457124,-0.412982 -2.212959,-0.483111 0.420774,1.367515 2.209063,0.888301 3.28827,1.277906 -0.57272,0.261036 -1.149336,0.525968 -1.722056,0.790899 0.163634,0.222075 0.487007,0.66233 0.650641,0.884405 0.522072,0.04286 1.044143,0.07792 1.566214,0.109089 0.549344,0.09351 1.094791,0.210387 1.640239,0.327269 0.07403,0.257139 0.218179,0.767522 0.292204,1.024662 -0.08182,-0.02727 -0.241555,-0.08571 -0.323372,-0.116882 -1.406476,-0.588304 -3.015547,-0.2961 -4.37527,-1.03635 -0.919468,0.779211 -2.006468,1.309074 -3.17918,1.585694 0.27662,-0.210387 0.55324,-0.42467 0.825964,-0.642849 -0.705186,-0.237659 -1.42206,-0.459734 -2.138934,-0.666225 0.903884,-0.522071 1.874002,-0.911677 2.898664,-1.114272 l -0.31558,-0.05065 c 0.42467,-0.479215 0.194803,-1.312971 -0.522071,-1.281802 0.44415,-0.319477 0.946741,-0.549344 1.371411,-0.888301 -1.067519,0.350645 -2.170103,0.619473 -3.307751,0.53376 0.198699,-0.525968 0.374022,-1.059727 0.57272,-1.585694 0.712978,0.05844 1.425956,0.116881 2.138934,0.175322 -0.159738,-0.74025 -0.299996,-1.480501 -0.432462,-2.224647 0.607785,-0.53376 1.157128,-1.129856 1.714264,-1.710368 z"
       inkscape:connector-curvature="0"
       style="fill:#68830e" />
    <path
       id="path5177"
       d="m 96.62344,44.434693 c 0.537656,-0.05455 0.981806,0.327268 1.445436,0.541551 0.455839,-0.01948 0.911677,-0.03896 1.367515,-0.05844 -0.475318,0.576616 -0.954533,1.149336 -1.429851,1.725952 -0.728563,-0.101297 -1.238946,-0.561031 -1.535046,-1.219465 0.03896,-0.249347 0.112986,-0.744146 0.151946,-0.989597 z"
       inkscape:connector-curvature="0"
       style="fill:#b6c84c" />
    <path
       id="path5179"
       d="m 93.993603,46.456745 c 0.241556,-0.627265 0.06623,-2.061013 1.098688,-1.901275 0.354541,0.448046 0.674017,0.923365 0.99739,1.390892 -0.112986,0.299996 -0.342853,0.892196 -0.459735,1.192192 -0.545447,-0.225971 -1.090895,-0.451942 -1.636343,-0.681809 z"
       inkscape:connector-curvature="0"
       style="fill:#b2c349" />
    <path
       id="path5181"
       d="m 98.00654,46.643755 c 1.157128,-0.06234 1.581798,-0.993493 1.835041,-1.971403 0.222079,0.42467 0.451939,0.84934 0.681809,1.270114 -0.45584,0.303892 -0.90778,0.603888 -1.359722,0.90778 0.222075,0.01948 0.666225,0.06234 0.888302,0.08182 0.21428,-0.105193 0.63895,-0.323372 0.84934,-0.432462 0.24935,0.08182 0.74414,0.245452 0.99349,0.327269 -1.23894,0.806483 -2.661003,0.467526 -4.001246,0.175322 -0.338957,0.07792 -1.012974,0.233764 -1.351931,0.315581 -0.01558,-0.631161 -0.03506,-1.262322 -0.07013,-1.893483 0.2961,0.658434 0.806483,1.118168 1.535046,1.219465 z"
       inkscape:connector-curvature="0"
       style="fill:#4a5b09" />
    <path
       id="path5183"
       d="m 91.476752,46.737261 c 0.268828,-0.155842 0.802588,-0.467527 1.071415,-0.627265 0.132466,0.744146 0.272724,1.484397 0.432462,2.224647 -0.712978,-0.05844 -1.425956,-0.116882 -2.138934,-0.175322 0.190907,-0.483111 0.409086,-0.954534 0.635057,-1.42206 z"
       inkscape:connector-curvature="0"
       style="fill:#799213" />
    <path
       id="path5187"
       d="m 96.541623,47.317773 c 0.338957,-0.08182 1.012974,-0.23766 1.351931,-0.315581 0.04286,0.179219 0.136362,0.53376 0.179218,0.712978 -0.75973,0.307789 -1.515565,0.619473 -2.271399,0.931157 -0.420774,-0.151946 -0.837652,-0.303892 -1.25453,-0.459734 0.662329,-0.292204 1.320763,-0.603889 1.99478,-0.86882 z"
       inkscape:connector-curvature="0"
       style="fill:#b0c236" />
    <path
       id="path5189"
       d="m 100.55456,48.54503 c 0.66233,-0.335061 1.34414,-0.623369 2.01816,-0.927261 0.074,0.14805 0.22597,0.448046 0.29999,0.596096 -0.35844,0.467527 -0.70518,0.942845 -1.04414,1.425956 0.42467,-0.416878 0.84544,-0.841548 1.25842,-1.27401 0.13247,0.136362 0.4013,0.40519 0.53376,0.537656 0.37013,0.374021 0.74025,0.751938 1.11038,1.12596 -0.0662,0.358437 -0.13247,0.712978 -0.1987,1.071415 0.26883,0.366229 0.53376,0.736354 0.79869,1.102583 -0.0117,0.27662 -0.0351,0.833756 -0.0468,1.110376 0.30389,0.311684 0.60389,0.627264 0.90388,0.938949 -0.42077,1.33245 -0.62726,2.71555 -0.93115,4.075273 -0.30779,0.222075 -0.61558,0.44415 -0.92726,0.666225 -0.47143,-0.179219 -0.94285,-0.354541 -1.41817,-0.518175 -0.487,-0.14805 -0.92336,-0.04675 -1.31686,0.303892 -0.31558,-0.179219 -0.63896,-0.350645 -0.95843,-0.518175 1.42595,-0.14805 1.95192,-1.453229 2.53633,-2.54802 0.27272,-0.338957 0.29999,-0.681809 0.0896,-1.028558 -0.12857,-0.218179 -0.26104,-0.432462 -0.3935,-0.642849 -0.42857,-0.880509 -1.23116,-1.351931 -2.19348,-1.394788 -0.40519,-0.06234 -1.223364,-0.18701 -1.63245,-0.249347 -0.545448,-0.116882 -1.090895,-0.233764 -1.640239,-0.327269 0.409086,-0.206491 0.810379,-0.436358 1.211673,-0.662329 0.409086,0.338957 0.802587,0.693498 1.203881,1.044142 0.335065,-0.377917 0.670125,-0.75973 1.005185,-1.137647 0.4909,0.04675 0.9818,0.09351 1.4766,0.140258 -0.31168,-0.529864 -0.59609,-1.075311 -0.95064,-1.577902 l -0.29999,-0.210387 c 0.65064,-0.36623 0.16753,-1.258426 -0.4948,-1.122064 z"
       inkscape:connector-curvature="0"
       style="fill:#4a5b09" />
    <path
       id="path5191"
       d="m 99.105227,47.948934 c 0.323372,-0.53376 1.312973,-0.04675 0.833756,0.502591 -0.323373,0.533759 -1.312971,0.04675 -0.833756,-0.502591 z"
       inkscape:connector-curvature="0"
       style="fill:#b5c62d" />
    <path
       id="path5193"
       d="m 95.832541,49.491771 c 0.779211,-0.397397 1.566214,-0.775315 2.364905,-1.137648 -0.288308,0.685706 -0.584408,1.359723 -0.884404,2.037637 -0.101298,-0.02727 -0.303892,-0.07792 -0.40519,-0.105194 -1.079207,-0.389605 -2.867496,0.08961 -3.28827,-1.277906 0.755835,0.07013 1.468813,0.342853 2.212959,0.483111 z"
       inkscape:connector-curvature="0"
       style="fill:#b1c339" />
    <path
       id="path5195"
       d="m 101.04936,49.667094 c -0.51428,-0.03506 -1.32466,-0.861028 -0.4948,-1.122064 0.66233,-0.136362 1.14544,0.755834 0.4948,1.122064 z"
       inkscape:connector-curvature="0"
       style="fill:#a8bd19" />
    <path
       id="path5197"
       d="m 90.268975,49.745015 c 1.137648,0.08571 2.240232,-0.183115 3.307751,-0.53376 -0.42467,0.338957 -0.927261,0.568824 -1.371411,0.888301 -0.845444,0.319476 -0.175323,1.375307 0.522071,1.281802 l 0.31558,0.05065 c -1.024662,0.202595 -1.99478,0.592201 -2.898664,1.114272 0.716874,0.206491 1.433748,0.428566 2.138934,0.666225 -0.272724,0.218179 -0.549344,0.432462 -0.825964,0.642849 -0.194803,0.07402 -0.584408,0.225971 -0.779211,0.299996 0.705186,0.545448 1.507773,0.919469 2.318153,1.281802 l 0.120777,0.210387 0.116882,0.222075 c -0.525967,0.04675 -0.857132,0.323373 -0.993494,0.825964 -1.044143,0.175322 -1.620759,1.106479 -2.251919,1.84673 0.935053,0.825963 2.150622,1.122063 3.34671,1.344138 -0.214283,0.03507 -0.638953,0.112986 -0.853236,0.14805 -0.923365,-0.04286 -1.815561,-0.2961 -2.676589,-0.615576 -0.03117,-0.264932 -0.08961,-0.794795 -0.116882,-1.059727 -0.381813,-0.412982 -0.810379,-0.798691 -1.110375,-1.281802 -0.0078,-0.518175 0.218179,-1.005182 0.362333,-1.492189 0.140258,-0.385709 0.288308,-0.763626 0.436358,-1.14544 0.455838,0.253244 0.896093,0.525968 1.31297,0.833756 -0.448046,-1.484397 -0.993494,-2.945417 -1.262321,-4.476567 0.171426,-0.18701 0.522071,-0.561031 0.693497,-0.751938 0.03896,-0.07402 0.112986,-0.225971 0.14805,-0.299996 z"
       inkscape:connector-curvature="0"
       style="fill:#354407" />
    <path
       id="path5199"
       d="m 98.0455,49.296968 c 0.580512,0.0078 1.161024,0.02727 1.741536,0.06623 0.03507,0.374022 0.10909,1.118168 0.144154,1.492189 0.47922,-0.319476 0.95064,-0.646745 1.41816,-0.977909 0.35455,0.502591 0.63896,1.048038 0.95064,1.577902 -0.4948,-0.04675 -0.9857,-0.09351 -1.4766,-0.140258 -0.33506,0.377917 -0.67012,0.75973 -1.005185,1.137647 -0.401294,-0.350644 -0.794795,-0.705185 -1.203881,-1.044142 -0.903885,-0.307788 -2.477891,-0.74025 -2.777887,0.55324 -0.163634,-0.222075 -0.487007,-0.66233 -0.650641,-0.884405 0.57272,-0.264931 1.149336,-0.529863 1.722056,-0.790899 0.101298,0.02727 0.303892,0.07792 0.40519,0.105194 0.61168,0.18701 1.215569,0.397397 1.823353,0.603888 -0.370125,-0.564928 -0.736354,-1.12596 -1.090895,-1.69868 z"
       inkscape:connector-curvature="0"
       style="fill:#99b01e" />
    <path
       id="path5201"
       d="m 103.39478,49.628133 c 1.13375,-0.14805 0.25325,1.410372 -0.49869,1.098687 -0.64285,-0.264931 0.0507,-1.05583 0.49869,-1.098687 z"
       inkscape:connector-curvature="0"
       style="fill:#869f13" />
    <path
       id="path5203"
       d="m 92.727386,51.381358 c -0.697394,0.09351 -1.367515,-0.962326 -0.522071,-1.281802 0.716874,-0.03117 0.946741,0.802587 0.522071,1.281802 z"
       inkscape:connector-curvature="0"
       style="fill:#97ab20" />
    <path
       id="path5205"
       d="m 88.940421,55.5852 c -0.498695,-1.628551 0.241555,-3.194764 0.487007,-4.788251 0.268827,1.53115 0.814275,2.99217 1.262321,4.476567 -0.416877,-0.307788 -0.857132,-0.580512 -1.31297,-0.833756 -0.14805,0.381814 -0.2961,0.759731 -0.436358,1.14544 z"
       inkscape:connector-curvature="0"
       style="fill:#5f7d18" />
    <path
       id="path5207"
       d="m 90.120925,50.621627 c 0.40519,-0.584408 1.332451,0.132466 0.899989,0.681809 -0.409086,0.584409 -1.336347,-0.132465 -0.899989,-0.681809 z"
       inkscape:connector-curvature="0"
       style="fill:#799010" />
    <path
       id="path5209"
       d="m 93.693607,50.695652 c 0.374022,-0.498695 1.484397,-0.0078 0.993494,0.5922 -0.377917,0.494799 -1.4805,0.0039 -0.993494,-0.5922 z"
       inkscape:connector-curvature="0"
       style="fill:#c3d052" />
    <path
       id="path5211"
       d="m 95.836437,51.96187 c 0.299996,-1.29349 1.874002,-0.861028 2.777887,-0.55324 -0.401294,0.225971 -0.802587,0.455838 -1.211673,0.662329 -0.522071,-0.03117 -1.044142,-0.06623 -1.566214,-0.109089 z"
       inkscape:connector-curvature="0"
       style="fill:#f1f496" />
    <path
       id="path5213"
       d="m 101.2052,51.786547 c 0.22597,-0.385709 1.19609,-0.358437 1.11038,0.202595 -0.22987,0.381813 -1.1922,0.350645 -1.11038,-0.202595 z"
       inkscape:connector-curvature="0"
       style="fill:#839916" />
    <path
       id="path5215"
       d="m 102.66622,52.667055 c 0.56103,-0.525967 1.18051,-1.005182 1.96361,-1.122063 0.24156,1.16492 -1.0831,2.096077 -1.96361,1.122063 z"
       inkscape:connector-curvature="0"
       style="fill:#8aa30f" />
    <path
       id="path5217"
       d="m 91.457272,53.855352 c 1.172712,-0.27662 2.259712,-0.806483 3.17918,-1.585694 1.359723,0.74025 2.968794,0.448046 4.37527,1.03635 -0.377918,0.319477 -0.779211,0.603889 -1.203881,0.857132 -1.180505,-0.18701 -2.345425,-0.459734 -3.529826,-0.623368 -0.755834,0.389605 -1.523357,0.755834 -2.294776,1.110375 -0.327268,-0.124674 -0.977909,-0.370125 -1.305178,-0.494799 0.194803,-0.07402 0.584408,-0.225971 0.779211,-0.299996 z"
       inkscape:connector-curvature="0"
       style="fill:#b2c334" />
    <path
       id="path5219"
       d="m 99.04289,52.398228 c 0.409086,0.06234 1.22726,0.18701 1.63245,0.249347 0.0156,0.436358 0.0273,0.876612 0.0429,1.312971 -0.46363,-0.175323 -0.923362,-0.354541 -1.383096,-0.537656 -0.07402,-0.25714 -0.218179,-0.767523 -0.292204,-1.024662 z"
       inkscape:connector-curvature="0"
       style="fill:#bbcc3c" />
    <path
       id="path5221"
       d="m 100.67534,52.647575 c 0.96232,0.04286 1.76491,0.514279 2.19348,1.394788 -0.48312,0.171426 -0.96623,0.342852 -1.44934,0.514279 -0.17532,-0.14805 -0.52596,-0.448046 -0.70129,-0.596096 -0.0156,-0.436359 -0.0273,-0.876613 -0.0429,-1.312971 z"
       inkscape:connector-curvature="0"
       style="fill:#879e12" />
    <path
       id="path5223"
       d="m 91.983239,54.650147 c 0.771419,-0.354541 1.538942,-0.72077 2.294776,-1.110375 1.184401,0.163634 2.349321,0.436358 3.529826,0.623368 0.42467,-0.253243 0.825963,-0.537655 1.203881,-0.857132 0.08182,0.03117 0.241555,0.08961 0.323372,0.116882 0.459734,0.183115 0.919466,0.362333 1.383096,0.537656 0.17533,0.14805 0.52597,0.448046 0.70129,0.596096 0.48311,-0.171427 0.96622,-0.342853 1.44934,-0.514279 0.13246,0.210387 0.26493,0.42467 0.3935,0.642849 -0.52987,-0.0974 -1.83504,0.650641 -0.82597,1.001286 0.18312,0.0078 0.55324,0.02338 0.73636,0.02727 -0.58441,1.094791 -1.11038,2.39997 -2.53633,2.54802 0.31947,0.16753 0.64285,0.338956 0.95843,0.518175 0.42856,0.568824 2.20906,0.697394 1.31686,-0.303892 0.47532,0.163634 0.94674,0.338956 1.41817,0.518175 -1.05583,0.787003 -2.28699,1.277906 -3.52204,1.710368 -0.61557,-0.229868 -1.231151,-0.455839 -1.842831,-0.689602 -0.0935,1.141544 -0.319477,2.2714 -0.331165,3.41684 -0.350645,-1.024663 -0.537655,-2.173999 -1.254529,-3.027234 -0.483111,-0.502591 -1.242842,-0.210387 -1.858418,-0.272724 -0.736354,-0.01948 -1.461021,-0.132466 -2.185687,-0.245452 -1.196088,-0.222075 -2.411657,-0.518175 -3.34671,-1.344138 0.63116,-0.740251 1.207776,-1.671408 2.251919,-1.84673 0.5922,0.428566 1.542838,-0.132466 0.993494,-0.825964 l -0.116882,-0.222075 c 0.455839,0.210387 1.476605,0.261036 1.375307,-0.490903 -0.2961,-0.74025 -1.211672,-0.175322 -1.496084,0.280516 -0.81038,-0.362333 -1.612967,-0.736354 -2.318153,-1.281802 0.327269,0.124674 0.97791,0.370125 1.305178,0.494799 z"
       inkscape:connector-curvature="0"
       style="fill:#5e7608" />
    <path
       id="path5225"
       d="m 103.36361,54.077427 c 0.81038,-0.370125 1.81946,-0.502591 2.36101,0.362333 -0.81427,0.120778 -1.65972,0.140258 -2.36101,-0.362333 z"
       inkscape:connector-curvature="0"
       style="fill:#6f8414" />
    <path
       id="path5227"
       d="m 95.594882,55.070921 c -1.351931,-0.498695 0.685705,-1.73764 0.802587,-0.412982 -0.202595,0.105194 -0.599992,0.311685 -0.802587,0.412982 z"
       inkscape:connector-curvature="0"
       style="fill:#b8ca3a" />
    <path
       id="path5229"
       d="m 92.996214,55.43715 c 0.284412,-0.455838 1.199984,-1.020766 1.496084,-0.280516 0.101298,0.751939 -0.919468,0.70129 -1.375307,0.490903 L 92.996214,55.43715 Z"
       inkscape:connector-curvature="0"
       style="fill:#a1b52e" />
    <path
       id="path5231"
       d="m 96.397469,54.657939 c 0.666225,0.194803 1.359723,0.124674 2.037637,0.04286 -0.101298,0.136362 -0.299997,0.40519 -0.401294,0.541551 -0.120778,0.175323 -0.362333,0.522072 -0.483111,0.697394 -0.525967,0.183115 -1.051935,0.362333 -1.585694,0.518175 -0.136362,0.01169 -0.409086,0.03507 -0.541552,0.04675 l 0.02338,-0.210387 c 0.05065,-0.409086 0.105193,-0.814275 0.14805,-1.223361 0.202595,-0.101297 0.599992,-0.307788 0.802587,-0.412982 z"
       inkscape:connector-curvature="0"
       style="fill:#90a71d" />
    <path
       id="path5233"
       d="m 98.435106,54.700796 c 0.475318,-0.635057 1.398683,-0.210387 2.045424,-0.249348 -0.45973,1.044143 -1.499977,0.903885 -2.446718,0.790899 0.101297,-0.136361 0.299996,-0.405189 0.401294,-0.541551 z"
       inkscape:connector-curvature="0"
       style="fill:#cdd953" />
    <path
       id="path5235"
       d="m 102.43635,55.686498 c -1.00907,-0.350645 0.2961,-1.098688 0.82597,-1.001286 0.21038,0.346749 0.18311,0.689601 -0.0896,1.028558 -0.18312,-0.0039 -0.55324,-0.01948 -0.73636,-0.02727 z"
       inkscape:connector-curvature="0"
       style="fill:#8da21e" />
    <path
       id="path5237"
       d="m 89.98846,56.115064 c 0.525967,-0.853236 1.515565,-0.927261 2.415553,-0.833756 -0.206491,1.157128 -1.527253,1.348035 -2.415553,0.833756 z"
       inkscape:connector-curvature="0"
       style="fill:#708610" />
    <path
       id="path5239"
       d="m 97.550701,55.939741 c 0.397398,-0.04675 0.790899,-0.08571 1.192193,-0.105193 -0.0039,0.175322 -0.0039,0.529863 -0.0039,0.709082 -0.923365,0.06234 -1.881795,0.264931 -2.773991,-0.08571 0.533759,-0.155842 1.059727,-0.33506 1.585694,-0.518175 z"
       inkscape:connector-curvature="0"
       style="fill:#f1f496" />
    <path
       id="path5241"
       d="m 99.303926,55.924157 c 0.927264,-0.412982 1.644134,0.16753 2.037634,0.966221 -0.84155,0.07792 -1.531147,-0.303892 -2.037634,-0.966221 z"
       inkscape:connector-curvature="0"
       style="fill:#95aa1f" />
    <path
       id="path5243"
       d="m 89.392363,56.216361 c 0.483111,-0.502591 1.281802,0.346749 0.790899,0.818171 -0.490903,0.506488 -1.281802,-0.338956 -0.790899,-0.818171 z"
       inkscape:connector-curvature="0"
       style="fill:#607311" />
    <path
       id="path5245"
       d="m 92.240379,56.695576 c 0.136362,-0.502591 0.467527,-0.779211 0.993494,-0.825964 0.549344,0.693498 -0.401294,1.25453 -0.993494,0.825964 z"
       inkscape:connector-curvature="0"
       style="fill:#8da21c" />
    <path
       id="path5247"
       d="m 94.071525,56.843626 c -0.01558,-0.557136 0.974013,-0.915573 1.375307,-0.549344 l -0.02338,0.210387 c -0.307788,0.350645 -0.923364,0.599992 -1.35193,0.338957 z"
       inkscape:connector-curvature="0"
       style="fill:#b1c138" />
    <path
       id="path5249"
       d="m 93.939059,57.443618 c 0.451942,-0.342853 0.927261,-0.412982 1.425956,-0.214283 0.377917,0.86882 -2.010364,1.161024 -1.425956,0.214283 z"
       inkscape:connector-curvature="0"
       style="fill:#bbcb39" />
    <path
       id="path5251"
       d="m 96.935125,57.45141 c 1.118167,-0.237659 3.272685,-1.188296 3.502555,0.623369 -0.876615,0.179218 -1.776603,0.07792 -2.657112,0.210387 -0.264931,-0.2961 -0.545447,-0.57272 -0.845443,-0.833756 z"
       inkscape:connector-curvature="0"
       style="fill:#9eb425" />
    <path
       id="path5253"
       d="m 91.527401,59.208531 c 0.292204,-0.697394 1.367515,-1.667511 1.959715,-0.709082 0.292204,1.153232 -1.316866,0.584408 -1.959715,0.709082 z"
       inkscape:connector-curvature="0"
       style="fill:#91a81a" />
    <path
       id="path5255"
       d="m 93.884514,59.048793 c 0.853236,-0.175323 1.788289,-1.059727 2.649317,-0.596097 -0.194803,0.545448 -0.487007,1.122064 -1.048039,1.367515 -0.615576,-0.03896 -1.083103,-0.490902 -1.601278,-0.771418 z"
       inkscape:connector-curvature="0"
       style="fill:#a1b32e" />
    <path
       id="path5257"
       d="m 101.59481,58.779965 c 0.3935,-0.350645 0.82986,-0.451942 1.31686,-0.303892 0.8922,1.001286 -0.8883,0.872716 -1.31686,0.303892 z"
       inkscape:connector-curvature="0"
       style="fill:#8b9e20" />
    <path
       id="path5259"
       d="m 96.966293,58.768277 c 0.545448,0.105193 1.714264,-0.167531 1.511669,0.75973 -0.144154,0.202595 -0.436358,0.611681 -0.584408,0.814276 -0.420774,-0.455839 -0.872716,-0.919469 -0.927261,-1.574006 z"
       inkscape:connector-curvature="0"
       style="fill:#adbd3b" />
    <path
       id="path5261"
       d="m 98.902632,58.838406 c 0.822068,0.08571 2.820748,-0.338957 2.349318,1.086999 -0.97401,0.31558 -1.683093,-0.53376 -2.349318,-1.086999 z"
       inkscape:connector-curvature="0"
       style="fill:#a4b632" />
    <path
       id="path5263"
       d="m 95.520857,60.131896 c 0.615576,0.06234 1.375307,-0.229867 1.858418,0.272724 0.716874,0.853235 0.903884,2.002571 1.254529,3.027234 -0.432462,0.02338 -0.86882,0.05065 -1.301282,0.05844 0.249348,-1.063623 0.576616,-2.423346 -0.712978,-2.933729 -0.0974,0.90778 -0.175322,1.815561 -0.237659,2.727238 -0.393502,-0.989598 -0.303892,-2.076597 -0.323373,-3.12074 l -0.537655,-0.03117 z"
       inkscape:connector-curvature="0"
       style="fill:#8f823a" />
    <path
       id="path5265"
       d="m 96.619544,60.556566 c 1.289594,0.510383 0.962326,1.870106 0.712978,2.933729 -0.237659,-0.05065 -0.712978,-0.155843 -0.950637,-0.206491 0.06234,-0.911677 0.140258,-1.819458 0.237659,-2.727238 z"
       inkscape:connector-curvature="0"
       style="fill:#c39972" />
  </g>
  <metadata
     id="metadata3982">
    <rdf:RDF>
      <cc:Work
         rdf:about="">
        <dc:format>image/svg+xml</dc:format>
        <dc:type
           rdf:resource="http://purl.org/dc/dcmitype/StillImage" />
        <dc:title></dc:title>
      </cc:Work>
    </rdf:RDF>
  </metadata>
  <defs
     id="defs3980" />
  <sodipodi:namedview
     pagecolor="#ffffff"
     bordercolor="#666666"
     borderopacity="1"
     objecttolerance="10"
     gridtolerance="10"
     guidetolerance="10"
     inkscape:pageopacity="0"
     inkscape:pageshadow="2"
     inkscape:window-width="1440"
     inkscape:window-height="790"
     id="namedview3978"
     showgrid="false"
     inkscape:zoom="10.594595"
     inkscape:cx="88.058532"
     inkscape:cy="62.389666"
     inkscape:window-x="0"
     inkscape:window-y="1"
     inkscape:window-maximized="1"
     inkscape:current-layer="svg3962" />
  <!-- <ellipse stroke="#000" ry="54" rx="54" id="svg_13" cy="54.5" cx="54.5" fill-opacity="null" stroke-opacity="null" stroke-width="0.2" fill="#fff"/> -->
  <path
     style="fill:#acadad"
     inkscape:connector-curvature="0"
     id="svg_10"
     d="M 34.416109,60.664842 C 32.84284,57.15434 32.490616,53.193774 32.925026,49.413234 c -0.01957,3.213068 0.379619,6.477013 1.663281,9.447437 0.590954,1.487169 1.573269,2.782572 2.136827,4.285396 0.634004,1.976369 2.293372,3.34613 3.7688,4.70415 3.561379,3.126969 8.285098,4.618052 12.961853,4.856782 5.244228,-0.14089 10.554988,-2.011592 14.300306,-5.776478 1.134945,-1.084068 2.285544,-2.246409 2.75909,-3.784454 0.563559,-1.502824 1.545873,-2.798227 2.132913,-4.289309 1.287576,-2.966511 1.686763,-6.230456 1.667195,-9.439611 0.356138,1.553701 0.04696,3.162191 0.09001,4.739373 -0.410928,7.455414 -5.506439,14.249429 -12.230009,17.298126 -3.737491,1.772862 -7.975923,2.0429 -12.034329,1.5537 C 43.260849,71.889056 37.19085,67.032274 34.416106,60.664842 Z" />
  <path
     style="fill:none"
     inkscape:connector-curvature="0"
     d="m 75.982144,33.868593 43.246206,0 0,43.246204 -43.246206,0 0,-43.246204 z"
     id="path5169" />
</svg>
