<?xml version="1.0" encoding="UTF-8" standalone="no"?>
<svg
   xmlns:dc="http://purl.org/dc/elements/1.1/"
   xmlns:cc="http://creativecommons.org/ns#"
   xmlns:rdf="http://www.w3.org/1999/02/22-rdf-syntax-ns#"
   xmlns:svg="http://www.w3.org/2000/svg"
   xmlns="http://www.w3.org/2000/svg"
   xmlns:sodipodi="http://sodipodi.sourceforge.net/DTD/sodipodi-0.dtd"
   xmlns:inkscape="http://www.inkscape.org/namespaces/inkscape"
   width="111"
   height="111"
   id="svg3962"
   version="1.1"
   inkscape:version="0.91 r13725"
   sodipodi:docname="icon_mkr_event.svg">
  <metadata
     id="metadata3982">
    <rdf:RDF>
      <cc:Work
         rdf:about="">
        <dc:format>image/svg+xml</dc:format>
        <dc:type
           rdf:resource="http://purl.org/dc/dcmitype/StillImage" />
        <dc:title></dc:title>
      </cc:Work>
    </rdf:RDF>
  </metadata>
  <defs
     id="defs3980" />
  <sodipodi:namedview
     pagecolor="#ffffff"
     bordercolor="#666666"
     borderopacity="1"
     objecttolerance="10"
     gridtolerance="10"
     guidetolerance="10"
     inkscape:pageopacity="0"
     inkscape:pageshadow="2"
     inkscape:window-width="1440"
     inkscape:window-height="790"
     id="namedview3978"
     showgrid="false"
     inkscape:zoom="2.5344828"
     inkscape:cx="58"
     inkscape:cy="40"
     inkscape:window-x="0"
     inkscape:window-y="1"
     inkscape:window-maximized="1"
     inkscape:current-layer="svg3962" />
  <!-- <ellipse stroke="#000" ry="54" rx="54" id="svg_13" cy="54.5" cx="54.5" fill-opacity="null" stroke-opacity="null" stroke-width="0.2" fill="#fff"/> -->
  <g
     id="g3713">
    <circle
       r="20.659727"
       cy="52.013504"
       cx="53.549606"
       id="path4012"
       style="fill:#ffffff;stroke:#acadad;stroke-width:0.27190241;stroke-miterlimit:4;stroke-dasharray:none;stroke-opacity:1" />
    <g
       transform="matrix(0.90116392,0,0,0.90116392,-44.094422,2.9690539)"
       id="g3632">
      <path
         style="fill:#d93448"
         inkscape:connector-curvature="0"
         d="m 94.442708,41.587426 c 3.271199,-3.644306 8.034832,-5.900306 12.932952,-6.091198 5.53587,-0.308031 11.09778,2.069446 14.77679,6.203998 -0.42083,0.190892 -0.846,0.377446 -1.27117,0.555323 -0.26898,0.03905 -0.80261,0.1128 -1.06726,0.147507 -0.10846,0.629077 0.16053,1.496769 -0.57267,1.826492 -0.70717,0.264646 -1.4881,0.299354 -2.1649,0.650769 -0.18221,0.603046 -0.28633,1.227784 -0.38178,1.852523 -0.65511,-0.412154 -1.47942,-0.911077 -2.18225,-0.277662 -0.40347,0.876369 -0.29935,1.869876 -0.36876,2.806984 -0.7896,0.915415 -1.70936,1.700676 -2.49028,2.62043 -0.85034,-0.906739 -1.90458,-1.592215 -2.71154,-2.538 -0.21692,-1.136676 -0.15618,-2.507629 -1.17572,-3.279875 -0.0391,0.780922 -0.0217,1.566184 -0.013,2.351445 l -0.32538,-0.151846 c -0.81129,-0.399138 -1.66163,-0.863354 -2.59874,-0.702831 -0.89372,1.423015 -1.22778,3.12803 -1.89157,4.663845 -1.08895,3.722399 -2.79397,7.232213 -3.900273,10.945934 0.117139,0.260308 0.355754,0.776585 0.472893,1.032554 -1.496769,0.954461 -2.62043,2.377476 -3.774461,3.700706 -3.626952,-3.284214 -5.900305,-8.021812 -6.095536,-12.915595 -0.264646,-4.872091 1.505446,-9.809258 4.802675,-13.401503 z"
         id="path3466" />
      <path
         style="fill:#234a9c"
         inkscape:connector-curvature="0"
         d="m 98.008922,43.071179 c -0.438184,-0.885046 0.420831,-1.657291 1.171385,-1.965322 0.503261,-0.06074 1.522803,-0.138831 1.197413,0.668123 -0.69849,0.264646 -1.483752,0.429507 -1.934952,1.084615 0.464216,1.596553 2.915442,0.472892 3.149722,2.156214 0.18222,1.362277 -1.71803,1.279846 -2.468583,2.0304 1.171383,0.13883 2.312403,-0.342739 3.479443,-0.190893 1.40566,1.188738 -0.0954,3.444738 -1.28852,4.056461 -1.11499,-1.132339 0.87203,-1.900246 1.11932,-2.950153 -1.41867,-0.03905 -3.987043,0.954461 -4.260366,-1.193077 0.242954,-1.084615 1.583538,-0.971815 2.312396,-1.570522 -1.20175,-0.147508 -2.225627,-0.9024 -2.477258,-2.125846 z"
         id="path3468" />
      <path
         style="fill:#0d68cd"
         inkscape:connector-curvature="0"
         d="m 109.57092,43.518041 c -0.98483,-0.05206 -0.59003,-1.028215 0.0304,-1.314554 0.9024,-0.09111 0.96747,1.652954 -0.0304,1.314554 z"
         id="path3470" />
      <path
         style="fill:#d0021b"
         inkscape:connector-curvature="0"
         d="m 120.88128,42.255549 c 0.42517,-0.177877 0.85034,-0.364431 1.27117,-0.555323 3.20612,3.609599 4.95886,8.486028 4.67686,13.319072 -0.20391,4.872091 -2.4599,9.609689 -6.08686,12.863534 -4.02175,3.709383 -9.75286,5.453444 -15.15858,4.637814 -3.65298,-0.498923 -7.115071,-2.156215 -9.848301,-4.616122 1.154031,-1.32323 2.277692,-2.746245 3.774461,-3.700706 0.88938,-0.02169 1.71803,-0.360092 2.52498,-0.702831 3.97403,-1.852522 8.01748,-3.553198 12.03055,-5.318952 l 0.59871,0.138831 c 0.42083,-1.236461 0.0477,-2.551014 -0.73754,-3.557537 l -0.36443,-0.520615 c 1.93929,-0.832985 4.10852,-0.6204 6.15628,-0.880708 0.14317,-0.403476 0.0998,-0.776584 -0.12148,-1.119322 -2.26468,-0.0043 -4.53803,0.351415 -6.68991,1.067261 -0.3948,-0.498923 -0.79827,-0.984831 -1.25381,-1.427353 0.78092,-0.919754 1.70068,-1.705015 2.49028,-2.62043 0.0477,0.694153 0.39046,0.98483 1.03255,0.867692 0.12148,-0.798277 0.13883,-1.613907 0.24295,-2.416522 0.36877,0.117138 0.7332,0.255969 1.08462,0.416492 0.68114,0.390461 1.51412,1.127999 2.28203,0.481569 0.76357,-0.715846 0.17354,-1.913261 -0.53797,-2.429538 0.0998,-0.08243 0.29935,-0.251631 0.39914,-0.3384 0.73753,0.117139 1.64427,0.273323 2.15621,-0.429507 0.93711,-0.837323 0.68982,-2.208276 0.0781,-3.158399 z"
         id="path3472" />
      <path
         style="fill:#a9204b"
         inkscape:connector-curvature="0"
         d="m 116.61224,42.498503 c 0.63341,-0.698492 1.60523,0.859015 0.70283,1.167045 -0.62474,0.741877 -1.6356,-0.867692 -0.70283,-1.167045 z"
         id="path3474" />
      <path
         style="fill:#b30f2c"
         inkscape:connector-curvature="0"
         d="m 119.81402,42.403056 c 0.26465,-0.03471 0.79828,-0.108461 1.06726,-0.147507 0.61173,0.950123 0.85902,2.321076 -0.0781,3.158399 -0.51194,0.70283 -1.41868,0.546646 -2.15621,0.429507 -0.53363,-0.30803 -1.04991,-0.633415 -1.57053,-0.963138 0.6768,-0.351415 1.45773,-0.386123 2.1649,-0.650769 0.7332,-0.329723 0.46421,-1.197415 0.57267,-1.826492 z"
         id="path3476" />
      <path
         style="fill:#af7e23"
         inkscape:connector-curvature="0"
         d="m 102.99815,43.752318 c 0.3948,-0.772246 1.2972,-0.277662 1.4664,0.373107 -0.16052,0.195231 -0.48591,0.581354 -0.64643,0.772246 -0.47723,-0.07375 -1.56185,-0.590031 -0.81997,-1.145353 z"
         id="path3478" />
      <path
         style="fill:#b71a48"
         inkscape:connector-curvature="0"
         d="m 116.69467,46.73284 c 0.0954,-0.624739 0.19957,-1.249477 0.38178,-1.852523 0.52062,0.329723 1.0369,0.655108 1.57053,0.963138 -0.0998,0.08677 -0.29936,0.255969 -0.39914,0.3384 0.71151,0.516277 1.30154,1.713692 0.53797,2.429538 -0.76791,0.64643 -1.60089,-0.09111 -2.28203,-0.481569 0.23861,-0.01735 0.71584,-0.04772 0.95446,-0.06508 -0.23428,-0.455539 -0.48591,-0.9024 -0.76357,-1.331907 z"
         id="path3482" />
      <path
         style="fill:#3c468c"
         inkscape:connector-curvature="0"
         d="m 110.03947,46.411794 c 0.21259,-0.182216 0.64643,-0.542308 0.85902,-0.724523 0.19523,0.208246 0.58135,0.620399 0.77658,0.828646 -0.13015,0.399138 -0.37744,0.707169 -0.74188,0.924092 -0.46421,-0.195231 -0.76356,-0.53797 -0.89372,-1.028215 z"
         id="path3484" />
      <path
         style="fill:#cf216f"
         inkscape:connector-curvature="0"
         d="m 107.76612,46.064717 c 1.01954,0.772246 0.9588,2.143199 1.17572,3.279875 0.0824,1.813477 -1.25815,3.913291 0.0477,5.509845 0.2473,-0.03905 0.74622,-0.117139 0.99785,-0.151846 -0.22126,0.143169 -0.66378,0.438184 -0.88505,0.585692 -0.55532,-0.724523 -1.40132,-1.162708 -1.93061,-1.904584 0.58569,-1.587877 0.52929,-3.305907 0.58135,-4.967537 -0.009,-0.785261 -0.026,-1.570522 0.013,-2.351445 z"
         id="path3486" />
      <path
         style="fill:#9f193d"
         inkscape:connector-curvature="0"
         d="m 114.51242,46.455178 c 0.70283,-0.633415 1.52714,-0.134492 2.18225,0.277662 0.27766,0.429507 0.52929,0.876368 0.76357,1.331907 -0.23862,0.01735 -0.71585,0.04772 -0.95446,0.06508 -0.35142,-0.160523 -0.71585,-0.299354 -1.08462,-0.416492 -0.10412,0.802615 -0.12147,1.618245 -0.24295,2.416522 -0.64209,0.117138 -0.98483,-0.173539 -1.03255,-0.867692 0.0694,-0.937108 -0.0347,-1.930615 0.36876,-2.806984 z"
         id="path3488" />
      <path
         style="fill:#742b0d"
         inkscape:connector-curvature="0"
         d="m 104.82898,47.561485 c 0.93711,-0.160523 1.78745,0.303693 2.59874,0.702831 -0.282,0.125815 -0.85034,0.386123 -1.13234,0.511938 -0.20824,1.201754 0.0694,2.407846 0.12582,3.609599 -0.71151,-0.650769 -1.04991,-1.553169 -1.38831,-2.429538 -0.009,0.199569 -0.0304,0.598708 -0.039,0.798277 -0.84166,0.741877 -1.14101,1.848184 -1.64861,2.806984 -0.27332,0.663784 -0.7896,1.318891 -0.57702,2.08246 l 0,0 c -1.28852,1.960984 -1.96098,4.33846 -2.72889,6.56409 l 0.26899,-0.147507 0.23861,0.681138 0.013,-0.976154 0.60738,0.3948 c 0.24729,-0.01302 0.74188,-0.04338 0.98917,-0.06074 2.9328,-1.553169 6.05649,-2.702861 8.99797,-4.234337 0.8243,-0.316708 1.7267,-0.104123 2.5727,-0.03037 0.33406,-0.238616 0.63342,-0.516277 0.89806,-0.832985 0.026,-0.81563 -0.3948,-1.518461 -0.69849,-2.238645 0.78526,1.006523 1.15837,2.321076 0.73754,3.557537 l -0.59871,-0.138831 c -4.01307,1.765754 -8.05652,3.46643 -12.03055,5.318952 -0.80695,0.342739 -1.6356,0.681139 -2.52498,0.702831 -0.117139,-0.255969 -0.355754,-0.772246 -0.472893,-1.032554 1.106303,-3.713721 2.811323,-7.223535 3.900273,-10.945934 0.66379,-1.535815 0.99785,-3.24083 1.89157,-4.663845 z"
         id="path3490" />
      <path
         style="fill:#a75d1b"
         inkscape:connector-curvature="0"
         d="m 106.29538,48.776254 c 0.282,-0.125815 0.85034,-0.386123 1.13234,-0.511938 l 0.32538,0.151846 c -0.0521,1.66163 0.004,3.37966 -0.58135,4.967537 -0.14317,-0.195231 -0.43385,-0.581354 -0.57702,-0.776585 l -0.17353,-0.221261 c -0.0564,-1.201753 -0.33406,-2.407845 -0.12582,-3.609599 z"
         id="path3492" />
      <path
         style="fill:#d6a347"
         inkscape:connector-curvature="0"
         d="m 108.94184,49.344592 c 0.80696,0.945785 1.8612,1.631261 2.71154,2.538 0.45554,0.442522 0.85901,0.92843 1.25381,1.427353 -1.0152,0.377446 -1.94796,0.924092 -2.91978,1.392646 -0.25163,0.03471 -0.75055,0.1128 -0.99785,0.151846 -1.30587,-1.596554 0.0347,-3.696368 -0.0477,-5.509845 z"
         id="path3494" />
      <path
         style="fill:#ffffff"
         inkscape:connector-curvature="0"
         d="m 105.03289,49.956315 c 0.3384,0.876369 0.6768,1.778769 1.38831,2.429538 l 0.17353,0.221261 c -0.25596,-0.01302 -0.76356,-0.04772 -1.01953,-0.06074 -0.49025,1.010861 -0.97616,2.052092 -1.75708,2.876399 -0.25163,0.117138 -0.75923,0.355754 -1.01086,0.477231 0.0434,0.255969 0.13449,0.772245 0.17788,1.028215 -0.19523,0.464215 -0.3948,0.92843 -0.59871,1.392645 -0.0738,0.195231 -0.2256,0.590031 -0.30369,0.7896 -0.2473,-1.219107 0.89372,-2.221292 0.68547,-3.46643 l 0,0 c 0.98483,-1.236461 1.43169,-2.806983 2.23865,-4.160583 l -0.013,-0.728861 c 0.009,-0.199569 0.0304,-0.598708 0.039,-0.798277 z"
         id="path3496" />
      <path
         style="fill:#f0a632"
         inkscape:connector-curvature="0"
         d="m 103.34523,53.561576 c 0.5076,-0.9588 0.80695,-2.065107 1.64861,-2.806984 l 0.013,0.728861 c -0.80696,1.3536 -1.25382,2.924122 -2.23865,4.160583 -0.21258,-0.763569 0.3037,-1.418676 0.57702,-2.08246 z"
         id="path3498" />
      <path
         style="fill:#0d68cd"
         inkscape:connector-curvature="0"
         d="m 112.90719,53.309945 c 2.15188,-0.715846 4.42523,-1.0716 6.68991,-1.067261 0.22126,0.342738 0.26465,0.715846 0.12148,1.119322 -2.04776,0.260308 -4.21699,0.04772 -6.15628,0.880708 -0.76791,0.1692 -1.54015,0.36443 -2.23864,0.737538 -0.46422,0.234277 -0.91542,0.494584 -1.32323,0.81563 l -0.34708,-0.07375 c -0.13883,-0.108462 -0.41215,-0.325385 -0.55099,-0.433846 0.22127,-0.147508 0.66379,-0.442523 0.88505,-0.585692 0.97182,-0.468554 1.90458,-1.0152 2.91978,-1.392646 z"
         id="path3500" />
      <path
         style="fill:#f8e85a"
         inkscape:connector-curvature="0"
         d="m 105.5752,52.546376 c 0.25597,0.01301 0.76357,0.04772 1.01953,0.06074 0.14317,0.195231 0.43385,0.581354 0.57702,0.776585 0.52929,0.741876 1.37529,1.180061 1.93061,1.904584 0.13884,0.108461 0.41216,0.325384 0.55099,0.433846 -0.39914,-0.08677 -0.79828,-0.182216 -1.19308,-0.290677 -1.0716,-1.4664 -3.14972,-0.568338 -4.01741,0.655107 -0.15619,-0.164861 -0.46856,-0.498923 -0.62474,-0.663784 0.78092,-0.824307 1.26683,-1.865538 1.75708,-2.876399 z"
         id="path3502" />
      <path
         style="fill:#a9204c"
         inkscape:connector-curvature="0"
         d="m 99.232368,53.743791 c 0.190892,-0.130154 0.572677,-0.390462 0.763569,-0.520615 0.793943,0.07809 0.876373,0.832984 0.472893,1.388307 -0.720185,0.221261 -1.141016,-0.186554 -1.236462,-0.867692 z"
         id="path3504" />
      <path
         style="fill:#b3390e"
         inkscape:connector-curvature="0"
         d="m 119.83138,54.988929 c 0.19089,-0.594369 0.94578,-1.0152 1.3883,-0.3948 0.57268,0.577015 -0.21692,1.145354 -0.76357,1.206092 -0.15618,-0.203908 -0.46855,-0.607384 -0.62473,-0.811292 z"
         id="path3506" />
      <path
         style="fill:#f4c83f"
         inkscape:connector-curvature="0"
         d="m 104.44286,56.086559 c 0.86769,-1.223445 2.94581,-2.121507 4.01741,-0.655107 -1.92627,1.15403 -3.96969,2.104153 -6.07384,2.889414 0.20391,-0.464215 0.40348,-0.92843 0.59871,-1.392645 0.6768,0.303692 1.4447,-0.06942 1.45772,-0.841662 z"
         id="path3508" />
      <path
         style="fill:#f2c56a"
         inkscape:connector-curvature="0"
         d="m 111.32366,54.980252 c 0.69849,-0.373108 1.47073,-0.568338 2.23864,-0.737538 l 0.36443,0.520615 c 0.30369,0.720184 0.72453,1.423015 0.69849,2.238645 -0.26464,0.316708 -0.564,0.594369 -0.89806,0.832985 -0.78526,-0.963138 -2.09981,-1.570523 -2.4035,-2.854707 z"
         id="path3510" />
      <path
         style="fill:#d47f26"
         inkscape:connector-curvature="0"
         d="m 110.00043,55.795882 c 0.40781,-0.321046 0.85901,-0.581353 1.32323,-0.81563 0.30369,1.284184 1.61824,1.891569 2.4035,2.854707 -0.846,-0.07375 -1.7484,-0.286339 -2.5727,0.03037 -2.94148,1.531476 -6.06517,2.681168 -8.99797,4.234337 -0.24729,0.01735 -0.74188,0.04772 -0.98917,0.06074 l -0.60738,-0.3948 c 0.17787,-0.937107 1.04123,-1.574861 1.54015,-2.360122 2.01738,-0.151846 3.73108,-1.275507 5.5836,-1.960984 0.88938,-0.355753 1.85252,-0.746215 2.31674,-1.648615 z"
         id="path3512" />
      <path
         style="fill:#3c729a"
         inkscape:connector-curvature="0"
         d="m 102.80726,55.900006 c 0.25163,-0.121477 0.75923,-0.360093 1.01086,-0.477231 0.15618,0.164861 0.46855,0.498923 0.62474,0.663784 -0.013,0.772246 -0.78092,1.145354 -1.45772,0.841662 -0.0434,-0.25597 -0.1345,-0.772246 -0.17788,-1.028215 z"
         id="path3514" />
      <path
         style="fill:#f0a632"
         inkscape:connector-curvature="0"
         d="m 108.46027,55.431452 c 0.3948,0.108461 0.79394,0.203907 1.19308,0.290677 l 0.34708,0.07375 c -0.46422,0.9024 -1.42736,1.292862 -2.31674,1.648615 -1.85252,0.685477 -3.56622,1.809138 -5.5836,1.960984 l -0.0173,-0.295015 c 0.0781,-0.199569 0.22993,-0.594369 0.30369,-0.7896 2.10415,-0.785261 4.14757,-1.735384 6.07384,-2.889414 z"
         id="path3516" />
      <path
         style="fill:#b05919"
         inkscape:connector-curvature="0"
         d="m 116.64695,57.01499 c -0.88939,-0.633415 -0.32973,-1.687661 0.67246,-1.618246 0.10412,0.229939 0.31671,0.694154 0.42083,0.928431 -0.10412,0.455538 -0.62908,0.828645 -1.09329,0.689815 z"
         id="path3518" />
      <path
         style="fill:#f2c56a"
         inkscape:connector-curvature="0"
         d="m 100.03932,62.208126 c 0.76791,-2.22563 1.44037,-4.603106 2.72889,-6.56409 0.20825,1.245138 -0.93277,2.247323 -0.68547,3.46643 l 0.0173,0.295015 c -0.49892,0.785261 -1.36228,1.423015 -1.54015,2.360122 l -0.013,0.976154 -0.23861,-0.681138 -0.26899,0.147507 z"
         id="path3520" />
      <path
         style="fill:#b3340f"
         inkscape:connector-curvature="0"
         d="m 117.4539,59.197235 c -0.49025,-1.167046 1.08028,-1.878553 1.54015,-0.685477 -0.0911,0.216923 -0.27332,0.650769 -0.36443,0.867692 -0.29501,-0.04772 -0.88504,-0.13883 -1.17572,-0.182215 z"
         id="path3522" />
      <path
         style="fill:#0d68cd"
         inkscape:connector-curvature="0"
         d="m 114.72501,60.472742 c -1.15837,0.407816 -0.87203,-1.696338 0.10846,-1.249476 0.25597,0.334061 0.57702,1.193076 -0.10846,1.249476 z"
         id="path3524" />
      <path
         style="fill:#a31746"
         inkscape:connector-curvature="0"
         d="m 118.8639,60.711358 c 0.58569,-0.707169 1.71369,0.403476 0.91975,0.941445 -0.57701,0.577016 -1.43603,-0.390461 -0.91975,-0.941445 z"
         id="path3526" />
    </g>
    <path
       d="M 34.416109,60.664842 C 32.84284,57.15434 32.490616,53.193774 32.925026,49.413234 c -0.01957,3.213068 0.379619,6.477013 1.663281,9.447437 0.590954,1.487169 1.573269,2.782572 2.136827,4.285396 0.634004,1.976369 2.293372,3.34613 3.7688,4.70415 3.561379,3.126969 8.285098,4.618052 12.961853,4.856782 5.244228,-0.14089 10.554988,-2.011592 14.300306,-5.776478 1.134945,-1.084068 2.285544,-2.246409 2.75909,-3.784454 0.563559,-1.502824 1.545873,-2.798227 2.132913,-4.289309 1.287576,-2.966511 1.686763,-6.230456 1.667195,-9.439611 0.356138,1.553701 0.04696,3.162191 0.09001,4.739373 -0.410928,7.455414 -5.506439,14.249429 -12.230009,17.298126 -3.737491,1.772862 -7.975923,2.0429 -12.034329,1.5537 C 43.260849,71.889056 37.19085,67.032274 34.416106,60.664842 Z"
       id="svg_10"
       inkscape:connector-curvature="0"
       style="fill:#acadad" />
  </g>
</svg>
